<?xml version="1.0" encoding="UTF-8" standalone="no"?>
<!DOCTYPE svg PUBLIC "-//W3C//DTD SVG 1.1//EN" "http://www.w3.org/Graphics/SVG/1.1/DTD/svg11.dtd">
<!-- Created with Vectornator (http://vectornator.io/) -->
<svg height="100%" stroke-miterlimit="10" style="fill-rule:nonzero;clip-rule:evenodd;stroke-linecap:round;stroke-linejoin:round;" version="1.1" viewBox="0 0 1024 1024" width="100%" xml:space="preserve" xmlns="http://www.w3.org/2000/svg" xmlns:vectornator="http://vectornator.io" xmlns:xlink="http://www.w3.org/1999/xlink">
<defs/>
<path d="M0 0L1024 0L1024 1024L0 1024L0 0Z" fill="#ffffff" fill-rule="nonzero" opacity="1" stroke="none"/>
<clipPath id="ArtboardFrame">
<rect height="1024" width="1024" x="0" y="0"/>
</clipPath>
<g clip-path="url(#ArtboardFrame)" id="icon" vectornator:layerName="icon">
<path d="M-222.638 1178.4C-318.291 912.304-383.202 13.9317-117.102-81.7213C148.998-177.374 1033.04-266.1 1128.69 0C1224.34 266.1 1290.1 1242.17 1024 1337.82C757.9 1433.47-126.985 1444.5-222.638 1178.4Z" fill="#727476" fill-rule="nonzero" opacity="1" stroke="#000000" stroke-linecap="round" stroke-linejoin="miter" stroke-width="0"/>
<path d="M952.219 512C659.822 512 422.781 704.726 422.781 942.469C422.781 968.055 423.364 999.641 428.628 1024C556.133 1044.46 964.494 1344.88 1078.28 1264.46C1218.12 1165.62 1022.49 675.12 1023.88 516.031C1000.43 513.45 976.538 512 952.219 512Z" fill="#c5c7c9" fill-rule="nonzero" opacity="1" stroke="#000000" stroke-linecap="round" stroke-linejoin="miter" stroke-width="0"/>
<path d="M655.294 182.756C495.795 146.34 337.056 245.808 300.724 404.937C292.588 440.57 291.319 476.163 295.98 510.37L212.192 592.211L118.529 683.752L249.26 675.969L369.791 668.774C409.22 712.432 461.973 744.89 523.728 758.99C683.228 795.407 841.966 695.939 878.298 536.809C914.631 377.68 814.793 219.173 655.294 182.756Z" fill="#ebedef" fill-rule="nonzero" opacity="1" stroke="#000000" stroke-linecap="round" stroke-linejoin="miter" stroke-width="0" vectornator:layerName="Curve"/>
<path d="M583.35 430.181C583.35 395.215 611.696 366.869 646.662 366.869C681.628 366.869 709.974 395.215 709.974 430.181C709.974 465.147 681.628 493.493 646.662 493.493C611.696 493.493 583.35 465.147 583.35 430.181Z" fill="#343638" fill-rule="nonzero" opacity="1" stroke="#000000" stroke-linecap="round" stroke-linejoin="miter" stroke-width="2.00131"/>
</g>
</svg>
